<?xml version="1.0"?>
<svg xmlns="http://www.w3.org/2000/svg" enable-background="new 0 0 64 64" height="512px" viewBox="0 0 64 64" width="512px"><g id="Icons"><g><path d="m11.989 47.481c-1.379 0-2.5 1.122-2.5 2.5s1.121 2.5 2.5 2.5 2.5-1.122 2.5-2.5-1.121-2.5-2.5-2.5zm0 4c-.827 0-1.5-.673-1.5-1.5s.673-1.5 1.5-1.5 1.5.673 1.5 1.5-.673 1.5-1.5 1.5z" fill="#FFFFFF"/><path d="m56.367 41.832c-.582-1.878-2.879-2.785-4.614-1.628l-7.914 5.266-9.869.01c-1.379 0-2.5-1.122-2.5-2.5 0-1.386 1.131-2.5 2.5-2.5h2.83c1.622 0 3.426-1.089 3.659-3.243.153-2.079-1.507-3.757-3.489-3.757h-10.25c-2.666 0-5.14 1.329-6.613 3.548l-.243.356c-.776 1.171-2.019 1.917-3.394 2.065v-2.469c0-.827-.673-1.5-1.5-1.5h-5.98c-.827 0-1.5.673-1.5 1.5v18c0 .827.673 1.5 1.5 1.5h5.979c.827 0 1.5-.673 1.5-1.5v-2.5l27.851-.01c1.183 0 2.352-.407 3.291-1.148l7.748-6.179c.986-.773 1.391-2.104 1.008-3.311zm-47.877-4.852c0-.276.225-.5.5-.5h5.979c.275 0 .5.224.5.5v10.2c-.823-1.028-2.073-1.7-3.489-1.7s-2.667.672-3.49 1.7zm6.98 18c0 .276-.225.5-.5.5h-5.98c-.275 0-.5-.224-.5-.5v-5.01c0-1.924 1.565-3.49 3.49-3.49 1.924 0 3.489 1.565 3.489 3.49.001 1.738.001 3.268.001 5.01zm39.271-10.624c-.001.001-.002.001-.003.002l-7.748 6.179c-.763.601-1.711.932-2.67.932l-27.85.011c0-4.004 0-6.836 0-11.022 1.711-.15 3.266-1.069 4.224-2.516l.243-.356c1.291-1.945 3.453-3.106 5.783-3.106h10.25c1.436 0 2.598 1.223 2.493 2.666-.171 1.553-1.485 2.334-2.663 2.334h-2.83c-1.917 0-3.5 1.559-3.5 3.5 0 1.93 1.57 3.5 3.501 3.5l10.021-.01c.098 0 .194-.029.276-.083l8.04-5.35c1.147-.765 2.707-.19 3.105 1.095.258.813-.012 1.708-.672 2.224z" fill="#FFFFFF"/><path d="m47.952 20.535-1.419-1.409c-.564-.566-1.55-.567-2.117 0l-6.496 6.488-2.356-2.347c-.564-.566-1.552-.566-2.116-.001l-1.421 1.411c-.578.579-.58 1.531.001 2.128l4.829 4.819c.584.586 1.543.586 2.127 0l8.97-8.97c.584-.584.587-1.531-.002-2.119zm-.706 1.411-8.97 8.971c-.189.188-.523.188-.713 0l-4.825-4.815c-.2-.206-.202-.521-.006-.717l1.421-1.411c.19-.19.502-.2.704 0l2.71 2.7c.195.195.511.194.706 0l6.85-6.84c.19-.19.514-.189.704.001l1.419 1.409c.196.194.196.508 0 .702z" fill="#FFFFFF"/><path d="m26.186 31.844c-1.125-2.486-1.695-5.367-1.695-8.563l.01-8.2c0-.769.639-1.438 1.422-1.491 2.447-.159 4.509-2.12 4.903-4.668.034-.245.234-.422.474-.422h17.38c.24 0 .44.177.477.426.394 2.548 2.455 4.513 4.905 4.673.801.045 1.429.7 1.429 1.491v8.19c0 9.327-4.89 15.855-14.94 19.954-.378.146-.804.143-1.164-.004-1.276-.541-2.461-1.103-3.52-1.67l-.473.882c1.086.582 2.298 1.157 3.607 1.712.606.248 1.305.249 1.918.01 10.477-4.274 15.571-11.105 15.571-20.884v-8.19c0-1.32-1.042-2.414-2.368-2.489-1.982-.129-3.655-1.739-3.977-3.822-.106-.741-.722-1.279-1.465-1.279h-17.38c-.742 0-1.358.538-1.464 1.273-.322 2.083-1.996 3.688-3.98 3.817-1.32.089-2.355 1.183-2.355 2.489l-.01 8.2c0 3.34.601 6.36 1.785 8.976z" fill="#FFFFFF"/><path d="m40.64 41.019c8.768-3.811 12.851-9.447 12.851-17.739v-6.53c0-.657-.428-1.24-1.04-1.42-1.982-.58-3.659-2.02-4.598-3.943-.258-.547-.78-.887-1.362-.887h-12.991c-.588 0-1.114.34-1.37.882-.933 1.923-2.606 3.358-4.591 3.938-.611.179-1.039.768-1.039 1.429l-.01 6.531c0 3.472.694 6.404 2.123 8.964l.873-.487c-1.343-2.407-1.996-5.18-1.996-8.476l.01-6.531c0-.218.135-.416.32-.47 2.254-.659 4.153-2.285 5.212-4.466.092-.194.271-.314.468-.314h12.99c.194 0 .365.117.461.319 1.064 2.182 2.967 3.812 5.218 4.471.187.054.321.248.321.46v6.53c0 7.844-3.893 13.189-12.249 16.822z" fill="#FFFFFF"/></g></g></svg>
