<svg id="Layer_1" data-name="Layer 1" xmlns="http://www.w3.org/2000/svg" viewBox="0 0 512 512"><defs><style>.cls-1{fill:#fff;}</style></defs><title>celular</title><path class="cls-1" d="M230.54,41h50.21a7.6,7.6,0,1,0,0-15.21H230.54a7.6,7.6,0,0,0,0,15.21Z"/><path class="cls-1" d="M230.54,460.05a7.6,7.6,0,0,0,0,15.21h50.21a7.6,7.6,0,1,0,0-15.21Z"/><path class="cls-1" d="M354.95,33.19V27.42A23.45,23.45,0,0,0,331.53,4H179.76a23.45,23.45,0,0,0-23.42,23.42v5.77a13.38,13.38,0,0,0-12.53,13.33V64.91a13.38,13.38,0,0,0,12.53,13.33v1.21a13.38,13.38,0,0,0-12.53,13.33v18.39a13.38,13.38,0,0,0,12.53,13.33V279.34a23.45,23.45,0,0,0,23.42,23.42H331.53a23.45,23.45,0,0,0,23.42-23.42V230.27a4.44,4.44,0,0,0-8.87,0v23.15H258.91l26-42.59a4.44,4.44,0,0,0-3.79-6.75H257.26l46.14-77.83a4.44,4.44,0,0,0-3.82-6.7H250.14L299.7,42h46.37V212.52a4.44,4.44,0,0,0,8.88,0V96.13a13.38,13.38,0,0,0,12.53-13.33V46.53A13.38,13.38,0,0,0,354.95,33.19ZM152.69,64.91V46.53a4.5,4.5,0,0,1,3.65-4.41v27.2A4.49,4.49,0,0,1,152.69,64.91Zm0,46.26V92.78a4.5,4.5,0,0,1,3.65-4.41v27.21A4.5,4.5,0,0,1,152.69,111.17ZM346.07,279.34a14.56,14.56,0,0,1-14.54,14.54H179.76a14.56,14.56,0,0,1-14.54-14.54v-17H346.07ZM269.62,72.61H224.3l-.21,0-.23,0-.15,0-.27.07-.13,0L223,73l-.16.08-.22.11-.22.14-.14.08-.24.18-.1.08-.21.19-.11.1-.16.17-.14.16-.11.15-.15.21,0,0-30.73,48.07a4.44,4.44,0,1,0,7.48,4.78l29.42-46h36.72l-4.64,7.26h0l-44,68.85a4.44,4.44,0,0,0,3.74,6.83h18.91l-22.38,38.79a4.44,4.44,0,0,0,7.69,4.44l26.21-45.45a4.44,4.44,0,0,0-3.84-6.65H227.13l17.34-27.12h47.32l-46.14,77.83a4.44,4.44,0,0,0,3.82,6.7h23.71l-24.66,40.47h-83.3V42h42.46a4.44,4.44,0,0,0,0-8.87H165.22V27.42a14.56,14.56,0,0,1,14.54-14.54H331.53a14.56,14.56,0,0,1,14.54,14.54v5.74H225.42a4.44,4.44,0,0,0,0,8.88h63.74Zm89,10.19a4.49,4.49,0,0,1-3.65,4.41V42.12a4.5,4.5,0,0,1,3.65,4.41Z"/><path class="cls-1" d="M89.5,426.33,133,448.09v48.66a9,9,0,0,0,9,9h95.84a9,9,0,0,0,9-9v-118a53.52,53.52,0,0,0-48.27-53.43l-.74-.08c-15.91-1.59-44.08-12.48-55.21-23.6l-20.31-20.3a35.93,35.93,0,0,0-25.57-10.6V198.37a36.17,36.17,0,1,0-72.34,0V321.2a117.55,117.55,0,0,0,65,105.13Zm-46.89-228a18.08,18.08,0,1,1,36.17,0v77.18a36.16,36.16,0,0,0-7.49,56.89l46.3,46.31A9,9,0,1,0,130.38,366l-46.3-46.31a18.08,18.08,0,0,1,6.75-29.84h0a18.06,18.06,0,0,1,18.8,4.28L130,314.39c21,21,66.77,28.85,66.86,28.88a35.51,35.51,0,0,1,32.06,35.44v109H151.11V442.5a9,9,0,0,0-5-8.09L97.59,410.16a98.93,98.93,0,0,1-55-89Z"/><circle class="cls-1" cx="439.55" cy="404.53" r="9.04"/><path class="cls-1" d="M451.31,162.2a36.21,36.21,0,0,0-36.17,36.17v72.34a35.92,35.92,0,0,0-25.57,10.6l-20.31,20.3c-11.12,11.12-39.3,22-55.28,23.61l-.6.07A53.54,53.54,0,0,0,265,378.71v118a9,9,0,0,0,9,9h95.84a9,9,0,0,0,9-9V448.09l29.59-14.79a9,9,0,1,0-8.09-16.18l-34.59,17.29a9,9,0,0,0-5,8.09v45.21H283.13v-109a35.53,35.53,0,0,1,32.13-35.45l.6-.07c19.61-2,52.09-14.7,66.19-28.8l20.31-20.3a18.06,18.06,0,0,1,18.8-4.27h0a18.08,18.08,0,0,1,6.76,29.84L381.62,366a9,9,0,0,0,12.79,12.79l46.3-46.31a36.16,36.16,0,0,0-7.49-56.89V198.37a18.08,18.08,0,1,1,36.17,0V321.2a99.73,99.73,0,0,1-12.07,47.5,9,9,0,1,0,15.89,8.64,117.87,117.87,0,0,0,14.27-56.13V198.37a36.21,36.21,0,0,0-36.17-36.17Z"/></svg>