<?xml version="1.0" encoding="utf-8"?>
<!-- Generator: Adobe Illustrator 21.0.0, SVG Export Plug-In . SVG Version: 6.00 Build 0)  -->
<svg version="1.1" id="Layer_1" xmlns="http://www.w3.org/2000/svg" xmlns:xlink="http://www.w3.org/1999/xlink" x="0px" y="0px"
	 viewBox="0 0 512 512" style="enable-background:new 0 0 512 512;" xml:space="preserve">
<style type="text/css">
	.st0{fill:#FFFFFF;}
</style>
<g id="outline">
	<path class="st0" d="M280,185.6c17.7,0,32-14.3,32-32s-14.3-32-32-32s-32,14.3-32,32S262.3,185.6,280,185.6z M280,137.6
		c8.8,0,16,7.2,16,16s-7.2,16-16,16s-16-7.2-16-16S271.2,137.6,280,137.6z"/>
	<path class="st0" d="M493.4,258.1c-2.4-2.2-6-2.8-9-1.3l-11.4,5.7L443.6,239c-5.7-4.5-12.7-7-20-7h-59.3l-8.8-13.1l30.8-16.6
		c11.3-5.8,16.2-19.2,11.3-30.9l-18.3-37.3c-4.6-11.5-17.7-17.1-29.2-12.5c-1.4,0.6-2.8,1.3-4.1,2.2c-8.6,5.8-12.1,16.7-8.6,26.4
		l8.2,18.8l-46.3,25.1c-11.6,6.4-15.8,21-9.3,32.6c0.3,0.5,0.6,1,0.9,1.5l23.4,37.5c5.9,8.9,15.9,14.2,26.6,14.2H392v56
		c0,4.4,3.6,8,8,8h48c4.4,0,8-3.6,8-8c0-2.1-0.8-4.2-2.3-5.7L440,316.7v-22.6l27.9,16.7c3.8,2.3,8.7,1.1,11-2.7
		c0.2-0.4,0.4-0.8,0.6-1.2l16-40C496.7,263.9,495.9,260.4,493.4,258.1z M408,328v-56c0-4.4-3.6-8-8-8h-59.2
		c-5.3,0-10.2-2.6-13.2-6.9l-23.4-37.5c-2.5-3.7-1.5-8.6,2.2-11.1c0.2-0.1,0.3-0.2,0.5-0.3l52.7-28.5c3.7-2,5.2-6.4,3.5-10.2
		l-10.9-24.9c-0.9-2.8,0.1-5.8,2.5-7.4c1.6-1.1,3.6-1.4,5.5-0.8c2,0.7,3.6,2.3,4.3,4.3l18.3,37.3c1.5,4-0.2,8.4-4.1,10.2l-38.7,20.8
		c-3.9,2.1-5.3,6.9-3.3,10.8c0.1,0.2,0.2,0.4,0.4,0.6l16,24c1.5,2.3,4,3.6,6.7,3.6h56c4.4,0,8,3.6,8,8v64c0,2.1,0.8,4.2,2.3,5.7
		l2.3,2.3H408z M468.1,292.3L440,275.5v-18.8l27,21.6c1.7,1.3,3.9,2,6,1.7L468.1,292.3z"/>
	<path class="st0" d="M344,296h-36l-38.6-51.1c-6-8-15.5-12.7-25.5-12.8h-0.1l-111.9-0.5c-10,0.1-19.4,4.8-25.5,12.8L68,296H48
		c-17.7,0-32,14.3-32,32v48c0,4.4,3.6,8,8,8h24.8c3.8,18.6,20.2,32,39.2,32h0.1c19-0.1,35.3-13.4,39.1-32h137.6
		c3.8,18.6,20.2,32,39.2,32h0.1c19-0.1,35.3-13.4,39.1-32H368c4.4,0,8-3.6,8-8v-48C376,310.3,361.7,296,344,296z M243.8,248.1
		L243.8,248.1c5.1,0,9.8,2.4,12.9,6.4l31.3,41.5h-95.7l-0.2-48.1L243.8,248.1z M119.2,254c3-4,7.7-6.3,12.7-6.4l44.1,0.2l0.2,48.1
		H87.9L119.2,254z M88.1,400L88.1,400C74.7,400,64,389.3,64,376c0-13.3,10.7-24,24-24H88c13.3,0,24,10.7,24,24
		C112.1,389.2,101.3,400,88.1,400z M116.2,347.6c-7.6-7.4-17.7-11.6-28.3-11.6c-19,0.1-35.3,13.4-39.1,32H32v-40c0-8.8,7.2-16,16-16
		h128.2l0.2,56h-49.2C125.6,360.3,121.8,353.2,116.2,347.6z M304.1,400L304.1,400c-13.3,0-24.1-10.7-24.1-24s10.7-24,24-24h0.1
		c13.3,0,24,10.7,24,24S317.3,400,304.1,400L304.1,400z M360,368h-16.8c-1.6-7.7-5.4-14.8-11-20.4c-15.7-15.6-41-15.5-56.6,0.2
		c-5.5,5.5-9.3,12.5-10.8,20.2h-72.4l-0.2-56H344c8.8,0,16,7.2,16,16V368z"/>
	<path class="st0" d="M107.9,198.9l40,24l8.2-13.7l-26.2-15.7l25-10c3.9-1.6,6-5.9,4.6-10l-10.9-32.8l32.8,10.9
		c4,1.3,8.4-0.7,10-4.6l10.9-27.3l23.4,29.3l12.5-10l-32-40c-2.8-3.5-7.8-4-11.2-1.3c-1.1,0.9-1.9,2-2.4,3.3l-13.2,33l-40.8-13.6
		c-4.2-1.4-8.7,0.9-10.1,5.1c-0.5,1.6-0.5,3.4,0,5.1l13.6,40.8l-33,13.2c-4.1,1.6-6.1,6.3-4.5,10.4
		C105.2,196.6,106.3,198,107.9,198.9L107.9,198.9z"/>
</g>
</svg>
