<?xml version="1.0" encoding="utf-8"?>
<!-- Generator: Adobe Illustrator 21.0.0, SVG Export Plug-In . SVG Version: 6.00 Build 0)  -->
<svg version="1.1" id="Capa_1" xmlns="http://www.w3.org/2000/svg" xmlns:xlink="http://www.w3.org/1999/xlink" x="0px" y="0px"
	 viewBox="0 0 512 512" style="enable-background:new 0 0 512 512;" xml:space="preserve">
<style type="text/css">
	.st0{fill:#FFFFFF;}
</style>
<g>
	<g>
		<path class="st0" d="M457.8,24.6H54.2C24.3,24.6,0,48.9,0,78.8v221.5v34.5c0,29.9,24.3,54.2,54.2,54.2h130.8l-15.8,78.8h-51
			c-5.4,0-9.8,4.4-9.8,9.8s4.4,9.8,9.8,9.8h275.7c5.4,0,9.8-4.4,9.8-9.8s-4.4-9.8-9.8-9.8h-51l-15.8-78.8h130.8
			c29.9,0,54.2-24.3,54.2-54.2v-34.5V78.8C512,48.9,487.7,24.6,457.8,24.6z M189.2,467.7l15.8-78.8h102l15.8,78.8L189.2,467.7
			L189.2,467.7z M492.3,334.8c0,19-15.5,34.5-34.5,34.5H54.2c-19,0-34.5-15.5-34.5-34.5v-24.6h472.6L492.3,334.8L492.3,334.8z
			 M492.3,290.5H19.7v-19.7h59.1c5.4,0,9.8-4.4,9.8-9.8s-4.4-9.8-9.8-9.8H19.7V78.8c0-19,15.5-34.5,34.5-34.5h403.7
			c19,0,34.5,15.5,34.5,34.5L492.3,290.5L492.3,290.5z"/>
	</g>
</g>
<g>
	<g>
		<path class="st0" d="M256,320c-10.9,0-19.7,8.8-19.7,19.7s8.8,19.7,19.7,19.7s19.7-8.8,19.7-19.7S266.9,320,256,320z"/>
	</g>
</g>
<g>
	<g>
		<path class="st0" d="M118,259c-0.1-0.6-0.3-1.2-0.6-1.9c-0.2-0.6-0.6-1.2-0.9-1.7c-0.4-0.5-0.8-1-1.2-1.5c-0.5-0.5-1-0.9-1.5-1.2
			c-0.5-0.4-1.1-0.7-1.7-0.9c-0.6-0.2-1.2-0.4-1.8-0.6c-1.3-0.3-2.6-0.3-3.8,0c-0.6,0.1-1.2,0.3-1.8,0.6c-0.6,0.2-1.2,0.6-1.7,0.9
			c-0.5,0.4-1,0.8-1.5,1.2c-0.5,0.5-0.9,1-1.2,1.5c-0.4,0.5-0.7,1.1-0.9,1.7c-0.2,0.6-0.4,1.2-0.6,1.9c-0.1,0.6-0.2,1.3-0.2,1.9
			s0.1,1.3,0.2,1.9c0.1,0.6,0.3,1.2,0.6,1.8c0.2,0.6,0.6,1.2,0.9,1.7c0.4,0.5,0.8,1,1.2,1.5s1,0.9,1.5,1.2c0.5,0.4,1.1,0.7,1.7,0.9
			c0.6,0.2,1.2,0.4,1.8,0.6c0.6,0.1,1.3,0.2,1.9,0.2s1.3-0.1,1.9-0.2c0.6-0.1,1.2-0.3,1.8-0.6c0.6-0.2,1.2-0.6,1.7-0.9
			c0.5-0.4,1-0.8,1.5-1.2s0.9-1,1.2-1.5c0.4-0.5,0.7-1.1,0.9-1.7c0.2-0.6,0.4-1.2,0.6-1.8c0.1-0.6,0.2-1.3,0.2-1.9
			S118.1,259.6,118,259z"/>
	</g>
</g>
<g>
	<g>
		<path class="st0" d="M385.5,176.5c-1.6-11.3-10.5-20.1-21.8-21.8v-6.7c0-18.4-14-33.4-31.2-33.4c-16.7,0-30.7,14.5-31.2,32.4h0.2
			l-0.2,0v72.3c0,23.1-17.3,41.9-38.5,41.9s-38.5-18.8-38.5-41.9v-6.3c5.3,0,11-3.9,11-14.7v-9.2c23.6-6,40.4-26.3,40.4-49.2v-7.7
			h-7.3l-0.2-47.8c-0.1-8.8-6.4-16.4-15.1-18c-1.9-5.8-8.1-8.9-13.8-7c-5.8,1.9-8.9,8.1-7,13.8c1.9,5.8,8.1,8.9,13.8,7
			c3.1-1,5.6-3.3,6.8-6.3c4.7,1.3,8,5.6,8,10.5l0.2,47.7h-7.3v7.8c-0.3,12.8-8.9,23.9-21.1,27.4c-6.6,2.1-13.6,2.1-20.2,0
			c-12.3-3.5-20.8-14.6-21.1-27.4v-7.8h-11V84.7c0-5,3.4-9.3,8.1-10.6c2.2,5.7,8.7,8.5,14.3,6.3c5.7-2.2,8.5-8.7,6.3-14.3
			c-2.2-5.7-8.7-8.5-14.3-6.3c-3.1,1.2-5.5,3.7-6.5,6.9c-8.8,1.5-15.2,9.1-15.3,18v47.7h-7.3v7.6c0,23,16.8,43.2,40.4,49.2v9.2
			c0,10.8,5.7,14.7,11,14.7v6.3c0,27.2,20.6,49.2,45.9,49.2s45.9-22.1,45.9-49.2v-72.2c0.4-13.9,11.1-25.3,23.9-25.3
			c13.2,0,23.9,11.7,23.9,26.1v6.7c-14,2-23.8,15.1-21.8,29.1c2,14,15.1,23.8,29.1,21.8C377.8,203.6,387.6,190.5,385.5,176.5z
			 M242.7,73.7c-2,0-3.7-1.6-3.7-3.7c0-2,1.6-3.7,3.7-3.7c2,0,3.7,1.6,3.7,3.7C246.3,72,244.7,73.7,242.7,73.7z M198.6,66.3
			c2,0,3.7,1.6,3.7,3.7c0,2-1.6,3.7-3.7,3.7s-3.7-1.6-3.7-3.7C194.9,68,196.6,66.3,198.6,66.3z M172.9,140v-0.3h11v0.4
			c0.3,16,10.9,29.9,26.2,34.4c8,2.5,16.6,2.5,24.7,0c15.3-4.5,25.9-18.4,26.2-34.4v-0.4h7.3v0.3c0,20.4-15.7,38.4-37.4,42.7
			c-5.1,1-10.3,1.3-15.5,0.8c-1.7-0.2-3.4-0.4-5.1-0.8C188.7,178.4,172.9,160.5,172.9,140z M217,205.8c-3.3,0-3.7-5.1-3.7-7.3v-7.8
			c0.3,0,0.6,0.1,0.9,0.1c0.4,0,0.7,0.1,1.1,0.1c1.7,0.2,3.5,0.3,5.3,0.3h0.2c1.8,0,3.5-0.1,5.2-0.3c0.4,0,0.8-0.1,1.1-0.1
			c0.3,0,0.6,0,0.9-0.1v7.8c0,2.2-0.4,7.3-3.7,7.3H217z M360.1,198.5c-10.1,0-18.4-8.2-18.4-18.4c0-10.1,8.2-18.4,18.4-18.4
			c10.1,0,18.4,8.2,18.4,18.4C378.4,190.3,370.2,198.5,360.1,198.5z"/>
	</g>
</g>
<g>
	<g>
		<path class="st0" d="M335.5,163.8c-5.3,0-9.6,4.3-9.6,9.6s4.3,9.6,9.6,9.6s9.6-4.3,9.6-9.6S340.8,163.8,335.5,163.8z M335.5,176.7
			c-1.8,0-3.2-1.4-3.2-3.2c0-1.8,1.4-3.2,3.2-3.2s3.2,1.4,3.2,3.2C338.7,175.3,337.3,176.7,335.5,176.7z"/>
	</g>
</g>
</svg>
