<?xml version="1.0" encoding="utf-8"?>
<!-- Generator: Adobe Illustrator 21.0.0, SVG Export Plug-In . SVG Version: 6.00 Build 0)  -->
<svg version="1.1" id="Layer_1" xmlns="http://www.w3.org/2000/svg" xmlns:xlink="http://www.w3.org/1999/xlink" x="0px" y="0px"
	 viewBox="0 0 512 512" style="enable-background:new 0 0 512 512;" xml:space="preserve">
<style type="text/css">
	.st0{fill:#FFFFFF;}
</style>
<path class="st0" d="M67.7,333l2.2-15.8l31.7,4.4l-2.2,15.8L67.7,333z"/>
<path class="st0" d="M133.5,439.2l2.2-15.8l15.8,2.2l-2.2,15.8L133.5,439.2z"/>
<path class="st0" d="M254.2,386.7l0.8-5.8l0.2,2.6c0.1-0.2,0.2-0.4,0.4-0.6c0.2-2.1,0.5-4.1,0.9-6.2c1.4-14.6,2.7-30.4-3.7-42.7
	c-0.1,1.2-0.2,2.3-0.2,3.5c-1.7-4-3.9-7.8-6.5-11.2c-8.9-11.9-22.2-19.7-36.9-21.8l-12.7-1.8l42.6-28.4l11.4,11.4l11.3-11.3l-16-16
	c-2.7-2.7-6.9-3.1-10.1-1l-57.4,38.3l-52.9-85.4c-6.3-10.1-16.7-16.9-28.4-18.5l-79.6-11.2l-2.2,15.8l79.6,11.2
	c7.1,1,13.3,5.1,17.1,11.1l5.1,8.2l-99.5-14l-2.2,15.8l34.6,4.9l-6.7,47.5l-25.7-3.6l-2.2,15.8l25.7,3.6L25,407.8l-7.8-1.1
	l-2.2,15.8l71.8,10.1c0.1,30.8,25.2,55.8,56,55.8c24.9-0.1,46.7-16.5,53.7-40.4l24.4,3.4c1.1,0.2,2.3,0.2,3.4,0.2
	c11.9,0,22.1-8.8,23.7-20.7l5.4-38.3C253.4,390.8,253.7,388.7,254.2,386.7z M65.3,235.8l62.3,8.8v0l33,53.2L58.6,283.3L65.3,235.8z
	 M182.3,438c-3.1,21.9-23.3,37.1-45.2,34c-10.5-1.5-20-7.1-26.4-15.5c-13.3-17.6-9.8-42.7,7.9-56c6.9-5.2,15.3-8,24-8.1
	c1.9,0,3.8,0.1,5.6,0.4C170.1,396,185.3,416.2,182.3,438z M235.4,405.1l-23.8-3.3l-2.2,15.8l23.8,3.3l-1.1,7.9
	c-0.6,4.4-4.6,7.4-9,6.8v0l-24.4-3.4c-0.1-30.9-25.2-55.9-56.1-55.8c-12.1,0-23.8,4-33.5,11.3c-9.7,7.3-16.7,17.5-20,29.1l-48.2-6.8
	l15.6-110.9l118.8,16.7l31.7,4.5c12.5,1.5,23.5,9.1,29.3,20.3l-23.6-3.3c-8.7-1.2-16.8,4.9-18.1,13.6l-2.2,15.8
	c-1.2,8.7,4.9,16.8,13.6,18.1l31.7,4.4L235.4,405.1z M241,365.5L241,365.5l-1.1,7.9l-31.7-4.5l2.2-15.8l30.9,4.3
	C241.4,360.1,241.3,362.8,241,365.5z"/>
<g>
	<path class="st0" d="M472.4,237.4l-50.8,11.5c-8.8,2-14.3,10.7-12.3,19.5l13.3,58.5l-19,4.3c0.2-4.1-0.5-8.7-1.9-13.9l0,0
		c-5.5-22.2-13.8-40-24.7-53.1c-8.5-10.1-16.9-15.4-23.7-18.2c5.3-8.7,7-19.7,4.3-31.3c-4.8-20.9-25.3-34.2-45.8-29.5
		s-33.4,25.5-28.6,46.4c0.6,2.4,3,3.9,5.4,3.4l3-0.7c0.1,1.7,0.3,3.4,0.7,5.2c3.3,14.8,16.7,24.7,31.3,24.3
		c-0.2,5.8,0.5,12.3,2.1,19.6l-8.8,11.9l-26.1,8.2l-33-3.2c-3-0.3-6.5-0.6-8.8,2c-2.3,2.6-1.5,6-1.2,7.2l5.2,22.8
		c0.6,2.4,3,3.9,5.4,3.4l5.2-1.2l-1.7,29.5c-0.1,2.5,1.7,4.6,4.2,4.8c2.5,0.1,4.6-1.7,4.8-4.2l1.9-32.1l12.5-2.8
		c-4.8,50.8,11.2,80.4,32.1,109.3l-7.9,1.8l-41.2-29.3l1.5-25.6c0.1-2.5-1.7-4.6-4.2-4.8c-2.5-0.1-4.6,1.7-4.8,4.2l-1.4,24.5
		c-20.6,4.3-35.8,22.7-35.9,44.1c0,2.5,2,4.5,4.5,4.5l6.6,0c2.2,16.9,16.6,30,34.1,30.1c2.7,0,5.3-0.3,7.8-0.9
		c6.2-1.4,11.9-4.5,16.6-9.2c5.4-5.4,8.9-12.3,9.8-19.8l5.2,0c1.5,0,3-0.1,4.2-1.2c1.1-1,1.7-2.4,1.7-3.9c0-1.5-0.1-3-0.3-4.5
		l91.8-20.8c7.1,17.6,25.7,27.8,44.3,23.6c18.5-4.2,30.9-21.5,29.7-40.4l3.3-0.8c0,0,0.7-0.1,0.8-0.2c1.3-0.3,3-0.8,4.2-2.7
		c0.6-0.9,1.1-2.5,0.6-4.6c-1.1-4.1-2.6-7.9-4.5-11.5c-1.3-22-7.6-34.2-14.9-43.2c2.7-2.8,4-6.8,3-10.9l-2.7-12.1l22.2-5
		c8.8-2,14.3-10.7,12.3-19.5l-11.7-51.3C489.9,240.9,481.2,235.4,472.4,237.4L472.4,237.4z M286.5,472.1c-4.8,4.8-11.2,7.4-18,7.4
		l0,0c-12.5,0-22.9-9.1-25-21l50.1,0.2C292.7,463.7,290.2,468.3,286.5,472.1L286.5,472.1z M304.5,449.6l-71.8-0.2
		c2-15.6,14-28.4,29.7-31.1l41.9,29.8C304.4,448.6,304.4,449.1,304.5,449.6z M353.4,358.1c-0.5,3.6,0.4,7.8,1.7,13.5l3.8,16.6
		l-16.1,3.6l-5.2-22.7c-5.8-25.7,7.1-33.4,13.3-35.6l43-9.8c1.1,5.9,0.8,10.3-1.1,13.5c-2.2,3.7-6.9,6.3-14.2,8l-15.7,3.6
		C357.3,350.1,354.1,353.2,353.4,358.1L353.4,358.1z M360.9,397l2.4,10.5c0,0-0.1,0-0.1,0l-31.2,7.1c-0.4-3.3,0.1-6.1,1.3-8.2
		c1.9-3.1,5.3-4.3,7.1-4.7L360.9,397z M391.8,315l-39.9,9.1c-2.7-4.7-5.4-9.9-7.9-15.3l10.3-10.6c5.6-5.8,7.7-12.7,5.7-18.8
		c-1.8-5.5-6.7-9.6-12.5-10.5c-5.3-0.8-10.4,1-14.4,5c-0.6-4.3-0.7-8.2-0.4-11.6c1.8-0.6,3.6-1.4,5.3-2.4c3.5-1.7,6.6-3.9,9.3-6.4
		C356.9,256.6,379.2,268.7,391.8,315L391.8,315z M291.3,225.2c-1.1-14.5,8.3-28,22.5-31.2c15.7-3.6,31.4,6.6,35.1,22.7
		c3,13.1-0.9,25.1-10,32l-5.2-23.1c-0.9-4-3.6-8.6-11-7.6c-0.1,0-0.3,0-0.4,0.1L291.3,225.2z M301.1,237.5c-0.4-1.7-0.6-3.5-0.6-5.2
		l23.5-5.3c0.3,0,0.5,0,0.6,0c0.1,0.2,0.1,0.4,0.2,0.7l5.8,25.7c-1,0.4-2,0.7-3.1,0.9c0,0,0,0,0,0
		C315.7,257,303.8,249.4,301.1,237.5L301.1,237.5z M310.8,306.6l10.2-3.2c0.9-0.3,1.7-0.9,2.3-1.6l15.1-20.4l0,0
		c1.5-2,3.2-3.2,5.1-3.6c0.8-0.2,1.7-0.2,2.6-0.1c2.5,0.4,4.7,2.2,5.4,4.5c1,2.9-0.3,6.3-3.6,9.7l-17.8,18.3l-17.6,4L310.8,306.6
		L310.8,306.6z M292.6,312.3l9.6-3l1.5,6.8l-11.4,2.6c-1.5,0.3-2.1-0.8-2.4-1.8C289.8,316.3,289.2,313.4,292.6,312.3z M281.5,311.7
		c-0.8,2.5-0.9,5.1-0.2,7.6c0.2,0.6,0.4,1.2,0.6,1.8c0,0,0,0,0,0l-21.3,4.8l-3.8-16.7L281.5,311.7
		C281.5,311.6,281.5,311.6,281.5,311.7L281.5,311.7z M294.4,327.5l39-8.8c0.8-0.2,1.6-0.6,2.2-1.2l1.7-1.7c1.9,4,3.9,7.9,6,11.5
		c-8.3,4.7-20.6,16.4-14.4,44l5.3,23.2c-2.9,1.3-6.3,3.6-8.6,7.5c-2.4,4.1-3.2,9.1-2.4,14.8l-8.9,2
		C299.6,394.9,290,368.3,294.4,327.5L294.4,327.5z M326.8,436.7c-2.5-3.4-4.9-6.7-7.2-10.1l45.6-10.3c5.9-1.3,8.3-4.7,7.1-10
		l-3.6-15.7l-3.8-16.6l34.6-7.9c2.4-0.6,3.9-3,3.4-5.4c-0.6-2.4-3-3.9-5.4-3.4l-34.6,7.9c-0.5-2.5-0.8-4.6-0.6-5.9
		c0.1-0.6,0.2-1.2,2.6-1.7l15.8-3.6c9.9-2.2,16.4-6.2,19.9-12.2c0.2-0.3,0.3-0.6,0.5-0.8l27.9-6.3l31.4-7.1l2.7,12.1
		c0.3,1.5-0.6,3.1-2.1,3.4l-43.7,9.9c-2.4,0.6-3.9,3-3.4,5.4c0.6,2.4,3,3.9,5.4,3.4l41.1-9.3c4.9,5.7,9.9,13,12.6,25.7
		c-11.4-10.1-27.2-14.7-43.2-11c-12.8,2.9-23.7,10.7-30.6,21.8c-6.2,9.9-8.6,21.5-7,33.1L326.8,436.7z M447.5,443
		c-13.7,3.1-27.5-4.1-33.4-16.9l56.2-12.7C470.6,427.3,461.2,439.8,447.5,443L447.5,443z M473.3,403.5l-66.1,15l-6.3,1.4
		c-2.3-20.3,10.7-39.6,30.8-44.1c17.6-4,35.1,4.3,43.7,19.4c0,0,0.1,0.1,0.1,0.1c1.2,2.2,2.3,4.5,3.1,6.9L473.3,403.5z M494.8,303
		c0.9,3.9-1.6,7.9-5.5,8.7l-57.9,13.1l-5.1-22.7l65-14.8L494.8,303z M489.3,278.7l-65,14.8l-2.1-9.3l65-14.8L489.3,278.7z
		 M485.2,260.6l-65,14.8l-2-8.9c-0.9-3.9,1.6-7.9,5.5-8.7l50.8-11.5c3.9-0.9,7.8,1.6,8.7,5.5L485.2,260.6z"/>
</g>
<path class="st0" d="M330.7,330.7l31.9-2.8l1.4,15.9l-31.9,2.8L330.7,330.7z"/>
<path class="st0" d="M354.9,425l15.9-1.4l1.4,15.9l-15.9,1.4L354.9,425z"/>
<path class="st0" d="M146.3,213.7l11.3-11.3L147.3,192H168c4.4,0,8-3.6,8-8v-20.7l26.3,26.3c3.1,3.1,8.2,3.1,11.3,0l26.3-26.3V184
	c0,4.4,3.6,8,8,8h28.7l-18.3,18.3l11.3,11.3l32-32c3.1-3.1,3.1-8.2,0-11.3c-1.5-1.5-3.5-2.3-5.7-2.3h-40v-32c0-4.4-3.6-8-8-8
	c-2.1,0-4.2,0.8-5.7,2.3L208,172.7l-34.3-34.3c-3.1-3.1-8.2-3.1-11.3,0c-1.5,1.5-2.3,3.5-2.3,5.7v32h-32c-4.4,0-8,3.6-8,8
	c0,2.1,0.8,4.2,2.3,5.7L146.3,213.7z"/>
<path class="st0" d="M194.4,128h16c0-3.1,1.4-6.1,3.7-8.2c10-10.3,10-26.7,0-37c-4.5-3.9-5-10.8-1.1-15.3c0.3-0.4,0.7-0.7,1.1-1.1
	c4.8-4.9,7.5-11.6,7.5-18.5h-16c0,3.1-1.4,6.1-3.7,8.2c-10,10.3-10,26.7,0,37c4.5,3.9,5,10.8,1.1,15.3c-0.3,0.4-0.7,0.7-1.1,1.1
	C197,114.5,194.4,121.1,194.4,128z"/>
<path class="st0" d="M242.4,112h16c0-3.1,1.4-6.1,3.7-8.2c10-10.3,10-26.7,0-37c-4.5-3.9-5-10.8-1.1-15.3c0.3-0.4,0.7-0.7,1.1-1.1
	c4.8-4.9,7.5-11.6,7.5-18.5h-16c0,3.1-1.4,6.1-3.7,8.2c-10,10.3-10,26.7,0,37c4.5,3.9,5,10.8,1.1,15.3c-0.3,0.4-0.7,0.7-1.1,1.1
	C245,98.5,242.4,105.1,242.4,112L242.4,112z"/>
</svg>
